<mxfile host="65bd71144e">
    <diagram id="h0DhdeccpvReDC5eBpX9" name="Page-1">
        <mxGraphModel dx="1521" dy="1003" grid="1" gridSize="10" guides="1" tooltips="1" connect="1" arrows="1" fold="1" page="1" pageScale="1" pageWidth="850" pageHeight="1100" math="0" shadow="0">
            <root>
                <mxCell id="0"/>
                <mxCell id="1" parent="0"/>
                <mxCell id="3" value="" style="rounded=0;whiteSpace=wrap;html=1;movable=1;resizable=1;rotatable=1;deletable=1;editable=1;connectable=1;fillColor=#1a1a1a;strokeColor=none;" vertex="1" parent="1">
                    <mxGeometry width="850" height="1000" as="geometry"/>
                </mxCell>
                <mxCell id="6" value="" style="rounded=0;whiteSpace=wrap;html=1;fillColor=#333333;strokeColor=none;movable=1;resizable=1;rotatable=1;deletable=1;editable=1;connectable=1;" vertex="1" parent="1">
                    <mxGeometry x="50" y="150" width="750" height="810" as="geometry"/>
                </mxCell>
                <mxCell id="5" value="" style="rounded=1;whiteSpace=wrap;html=1;fillColor=#666666;movable=1;resizable=1;rotatable=1;deletable=1;editable=1;connectable=1;strokeColor=none;" vertex="1" parent="1">
                    <mxGeometry x="50" y="60" width="750" height="140" as="geometry"/>
                </mxCell>
                <mxCell id="7" value="Technovine" style="text;html=1;resizable=0;autosize=1;align=left;verticalAlign=middle;points=[];fillColor=none;strokeColor=none;rounded=0;fontSize=48;" vertex="1" parent="1">
                    <mxGeometry x="80" y="85" width="260" height="60" as="geometry"/>
                </mxCell>
                <mxCell id="8" value="Header" style="text;html=1;resizable=0;autosize=1;align=left;verticalAlign=middle;points=[];fillColor=none;strokeColor=none;rounded=0;fontSize=24;fontColor=#D2E9F9;" vertex="1" parent="1">
                    <mxGeometry x="90" y="260" width="90" height="30" as="geometry"/>
                </mxCell>
                <mxCell id="10" value="Body" style="text;html=1;resizable=0;autosize=1;align=left;verticalAlign=middle;points=[];fillColor=none;strokeColor=none;rounded=0;fontSize=16;fontColor=#D9D9D9;" vertex="1" parent="1">
                    <mxGeometry x="90" y="315" width="50" height="20" as="geometry"/>
                </mxCell>
                <mxCell id="11" value="Contact" style="text;html=1;resizable=0;autosize=1;align=left;verticalAlign=middle;points=[];fillColor=none;strokeColor=none;rounded=0;fontSize=26;" vertex="1" parent="1">
                    <mxGeometry x="83" y="142" width="110" height="40" as="geometry"/>
                </mxCell>
                <mxCell id="12" value="" style="rounded=1;whiteSpace=wrap;html=1;fontSize=26;fontColor=#F0F0F0;fillColor=#595959;strokeColor=none;" vertex="1" parent="1">
                    <mxGeometry x="83" y="360" width="687" height="210" as="geometry"/>
                </mxCell>
                <mxCell id="15" value="" style="endArrow=none;html=1;fontSize=26;fontColor=#F0F0F0;strokeColor=#F0F0F0;endSize=15;startSize=15;opacity=75;" edge="1" parent="1">
                    <mxGeometry width="50" height="50" relative="1" as="geometry">
                        <mxPoint x="426" y="385" as="sourcePoint"/>
                        <mxPoint x="426" y="545" as="targetPoint"/>
                    </mxGeometry>
                </mxCell>
            </root>
        </mxGraphModel>
    </diagram>
</mxfile>